<svg xmlns="http://www.w3.org/2000/svg" xmlns:xlink="http://www.w3.org/1999/xlink" width="80" zoomAndPan="magnify" viewBox="0 0 60 30.000001" height="40" preserveAspectRatio="xMidYMid meet" version="1.0"><defs><g/><clipPath id="4e7cba623d"><path d="M 3.871094 6.652344 L 23.835938 6.652344 L 23.835938 21.84375 L 3.871094 21.84375 Z M 3.871094 6.652344 " clip-rule="nonzero"/></clipPath></defs><g clip-path="url(#4e7cba623d)"><path fill="#000000" d="M 8.371094 16.957031 C 8.589844 17.058594 8.820312 17.167969 9.074219 17.273438 C 8.652344 16.976562 8.246094 16.652344 7.832031 16.382812 C 7.078125 15.898438 6.34375 15.382812 5.605469 14.875 C 5.386719 15.371094 5.09375 15.8125 4.710938 16.1875 C 5.109375 16.320312 5.472656 16.527344 5.90625 16.59375 C 6.484375 16.679688 7.039062 16.78125 7.605469 16.9375 C 7.832031 17.003906 8.0625 17.058594 8.292969 17.117188 C 7.996094 16.972656 7.734375 16.847656 7.488281 16.746094 C 7.367188 16.691406 7.25 16.65625 7.140625 16.613281 C 7.03125 16.574219 6.921875 16.550781 6.824219 16.523438 C 6.621094 16.460938 6.441406 16.410156 6.289062 16.363281 C 6.132812 16.320312 6.007812 16.277344 5.902344 16.238281 C 5.796875 16.195312 5.714844 16.164062 5.648438 16.136719 C 5.519531 16.082031 5.464844 16.054688 5.46875 16.039062 C 5.472656 16.027344 5.535156 16.035156 5.671875 16.070312 C 5.738281 16.085938 5.824219 16.109375 5.933594 16.136719 C 5.988281 16.152344 6.046875 16.171875 6.109375 16.1875 C 6.175781 16.203125 6.246094 16.222656 6.324219 16.238281 C 6.476562 16.277344 6.65625 16.320312 6.859375 16.375 C 6.960938 16.398438 7.074219 16.421875 7.1875 16.460938 C 7.300781 16.5 7.429688 16.535156 7.550781 16.589844 C 7.804688 16.6875 8.078125 16.8125 8.371094 16.957031 Z M 9.136719 18.386719 C 9.25 18.398438 9.640625 18.476562 9.863281 18.4375 C 9.535156 18.367188 9.226562 18.257812 8.902344 18.144531 C 8.355469 17.957031 7.816406 17.882812 7.238281 17.832031 C 6.695312 17.78125 6.085938 17.769531 5.5625 17.597656 C 5.167969 17.464844 4.796875 17.277344 4.398438 17.160156 C 4.382812 17.191406 4.363281 17.21875 4.34375 17.25 C 5.207031 17.757812 6.214844 17.929688 7.191406 18.089844 C 7.839844 18.195312 8.484375 18.328125 9.136719 18.386719 Z M 10.179688 17.523438 C 10.042969 17.386719 9.90625 17.25 9.796875 17.132812 C 9.199219 16.480469 8.59375 15.832031 7.992188 15.1875 C 7.265625 14.410156 6.550781 13.621094 5.816406 12.851562 C 5.445312 13.171875 5.085938 13.507812 4.761719 13.875 C 5.796875 14.542969 6.789062 15.277344 7.824219 15.945312 C 8.574219 16.429688 9.339844 17.132812 10.179688 17.523438 Z M 10.199219 18.128906 C 10.242188 18.101562 10.289062 18.074219 10.339844 18.050781 C 9.972656 17.976562 9.625 17.839844 9.257812 17.746094 C 8.671875 17.601562 8.089844 17.449219 7.507812 17.292969 C 6.941406 17.140625 6.382812 17.046875 5.808594 16.945312 C 5.378906 16.871094 5.019531 16.675781 4.628906 16.542969 C 4.613281 16.644531 4.585938 16.738281 4.554688 16.828125 C 4.929688 16.953125 5.277344 17.152344 5.660156 17.242188 C 6.257812 17.386719 6.867188 17.425781 7.476562 17.484375 C 7.929688 17.53125 8.378906 17.578125 8.8125 17.726562 C 9.269531 17.882812 9.71875 18.066406 10.199219 18.128906 Z M 11.226562 19.058594 C 11.226562 19.058594 11.203125 18.863281 11.1875 18.808594 C 11.179688 18.773438 11.167969 18.738281 11.152344 18.703125 C 11.09375 18.671875 11.070312 18.609375 11.074219 18.546875 C 10.988281 18.394531 10.863281 18.269531 10.6875 18.226562 C 10.652344 18.257812 10.621094 18.292969 10.585938 18.328125 C 10.574219 18.355469 10.550781 18.375 10.523438 18.398438 C 10.503906 18.417969 10.488281 18.4375 10.46875 18.457031 C 10.460938 18.464844 10.453125 18.472656 10.441406 18.480469 C 10.386719 18.539062 10.335938 18.597656 10.28125 18.65625 C 10.316406 18.882812 10.710938 19.125 10.957031 19.105469 C 11.03125 19.097656 11.160156 19.101562 11.226562 19.058594 Z M 16.199219 11.828125 C 15.664062 10.808594 14.871094 9.84375 13.980469 9.117188 C 13.257812 8.527344 12.445312 7.980469 11.972656 7.15625 C 10.777344 7.953125 9.683594 8.851562 8.597656 9.796875 C 7.660156 10.609375 6.625 11.367188 5.78125 12.285156 C 6.675781 13.210938 7.542969 14.164062 8.417969 15.109375 C 9.007812 15.742188 9.597656 16.375 10.183594 17.011719 C 10.414062 17.257812 10.695312 17.507812 10.902344 17.785156 C 11.84375 16.949219 12.488281 15.765625 13.332031 14.832031 C 14.261719 13.804688 15.34375 12.921875 16.199219 11.828125 Z M 18.234375 20.597656 C 18.222656 20.492188 18.214844 20.382812 18.207031 20.277344 C 17.785156 20.253906 17.398438 20.128906 16.992188 20.007812 C 16.453125 19.851562 15.902344 19.773438 15.351562 19.675781 C 15.125 19.632812 14.898438 19.585938 14.671875 19.539062 C 14.855469 19.597656 15.042969 19.652344 15.226562 19.710938 C 16.214844 20.019531 17.203125 20.4375 18.234375 20.597656 Z M 18.765625 13.832031 C 19.398438 12.714844 20.121094 11.621094 20.882812 10.582031 C 19.410156 10.988281 18.011719 11.617188 16.542969 12.039062 C 16.523438 12.042969 16.503906 12.042969 16.488281 12.042969 C 15.660156 13.097656 14.628906 13.941406 13.734375 14.933594 C 12.914062 15.839844 12.269531 16.972656 11.390625 17.828125 C 12.34375 17.675781 13.238281 17.308594 14.160156 17.027344 C 15.027344 16.761719 15.914062 16.625 16.796875 16.441406 C 16.953125 16.390625 17.042969 16.359375 17.179688 16.175781 C 17.335938 15.96875 17.539062 15.804688 17.714844 15.617188 C 18.1875 15.109375 18.425781 14.429688 18.765625 13.832031 Z M 21.921875 11.070312 C 21.898438 11.023438 21.878906 10.976562 21.863281 10.929688 C 21.59375 10.945312 21.328125 10.992188 21.058594 11.023438 C 21.042969 11.027344 21.023438 11.027344 21.007812 11.023438 C 20.226562 12.101562 19.46875 13.242188 18.867188 14.414062 C 18.570312 14.992188 18.308594 15.550781 17.84375 16.003906 C 17.628906 16.214844 17.472656 16.492188 17.269531 16.699219 C 17.144531 16.824219 16.886719 16.792969 16.722656 16.851562 C 16.679688 16.867188 16.644531 16.863281 16.613281 16.851562 C 15.679688 17.046875 14.75 17.210938 13.84375 17.515625 C 13.65625 17.582031 13.46875 17.640625 13.28125 17.703125 C 13.390625 17.679688 13.496094 17.652344 13.601562 17.625 C 13.996094 17.527344 14.363281 17.457031 14.699219 17.425781 C 15.363281 17.382812 15.851562 17.257812 16.242188 17.175781 C 16.628906 17.09375 16.898438 17.050781 17.074219 17.035156 C 17.25 17.027344 17.324219 17.027344 17.324219 17.039062 C 17.324219 17.074219 17.027344 17.101562 16.269531 17.304688 C 16.078125 17.351562 15.859375 17.410156 15.601562 17.464844 C 15.472656 17.492188 15.335938 17.519531 15.1875 17.539062 C 15.039062 17.558594 14.882812 17.574219 14.71875 17.59375 C 14.394531 17.628906 14.035156 17.703125 13.644531 17.800781 C 13.570312 17.820312 13.492188 17.839844 13.414062 17.859375 C 13.796875 17.820312 14.179688 17.78125 14.5625 17.734375 C 15.566406 17.609375 16.585938 17.539062 17.570312 17.289062 C 18.03125 16.824219 18.308594 16.199219 18.695312 15.671875 C 19.074219 15.160156 19.460938 14.660156 19.851562 14.15625 C 20.621094 13.179688 21.195312 12.074219 21.921875 11.070312 Z M 22.117188 12.324219 C 21.921875 12.324219 21.722656 12.324219 21.527344 12.347656 C 21.519531 12.351562 21.511719 12.351562 21.503906 12.351562 C 21.058594 13.050781 20.625 13.761719 20.109375 14.417969 C 19.648438 15.011719 19.148438 15.597656 18.742188 16.234375 C 18.460938 16.675781 18.222656 17.136719 17.859375 17.515625 C 17.84375 17.5625 17.804688 17.605469 17.738281 17.625 C 16.703125 17.898438 15.621094 17.972656 14.5625 18.101562 C 14.546875 18.101562 14.535156 18.101562 14.519531 18.105469 C 14.546875 18.105469 14.578125 18.105469 14.605469 18.105469 C 15.640625 18.144531 16.660156 18.402344 17.691406 18.40625 C 18.140625 17.925781 18.371094 17.320312 18.75 16.789062 C 19.136719 16.242188 19.523438 15.695312 19.929688 15.164062 C 20.65625 14.214844 21.371094 13.257812 22.117188 12.324219 Z M 22.515625 12.722656 C 22.445312 12.703125 22.375 12.6875 22.300781 12.679688 C 21.457031 13.730469 20.628906 14.8125 19.835938 15.902344 C 19.46875 16.410156 19.082031 16.90625 18.773438 17.453125 C 18.519531 17.90625 18.269531 18.347656 17.902344 18.71875 C 17.855469 18.765625 17.800781 18.78125 17.753906 18.769531 C 17.746094 18.773438 17.738281 18.773438 17.730469 18.773438 C 16.605469 18.777344 15.503906 18.484375 14.375 18.46875 C 13.667969 18.457031 12.960938 18.476562 12.253906 18.492188 C 12.585938 18.515625 12.914062 18.53125 13.242188 18.570312 C 13.769531 18.632812 14.289062 18.71875 14.8125 18.800781 C 15.746094 18.953125 16.738281 18.914062 17.65625 19.171875 C 19.335938 17.066406 20.933594 14.902344 22.515625 12.722656 Z M 22.574219 13.695312 C 22.484375 13.679688 22.390625 13.664062 22.296875 13.65625 C 22.296875 13.65625 22.292969 13.652344 22.289062 13.652344 C 20.855469 15.613281 19.40625 17.5625 17.894531 19.460938 C 17.863281 19.539062 17.785156 19.59375 17.683594 19.5625 C 16.675781 19.246094 15.542969 19.292969 14.5 19.121094 C 14.4375 19.109375 14.375 19.101562 14.316406 19.09375 C 14.621094 19.160156 14.925781 19.226562 15.230469 19.28125 C 15.785156 19.382812 16.363281 19.441406 16.902344 19.597656 C 17.324219 19.726562 17.738281 19.875 18.175781 19.910156 C 19.175781 19.070312 19.804688 17.796875 20.554688 16.746094 C 21.253906 15.765625 21.988281 14.753906 22.574219 13.695312 Z M 22.792969 14.523438 C 22.792969 14.523438 22.792969 14.519531 22.792969 14.519531 C 22.769531 14.453125 22.753906 14.375 22.738281 14.289062 C 22.722656 14.261719 22.710938 14.234375 22.707031 14.203125 C 22.085938 15.269531 21.335938 16.289062 20.617188 17.28125 C 19.9375 18.21875 19.40625 19.304688 18.535156 20.082031 C 18.535156 20.09375 18.535156 20.101562 18.535156 20.113281 C 18.550781 20.140625 18.558594 20.167969 18.5625 20.203125 C 18.574219 20.324219 18.582031 20.445312 18.59375 20.566406 C 19.4375 19.542969 20.332031 18.550781 21 17.398438 C 21.570312 16.417969 22.078125 15.40625 22.792969 14.523438 Z M 23.40625 14.460938 C 23.316406 14.441406 23.230469 14.421875 23.140625 14.402344 C 23.144531 14.40625 23.144531 14.410156 23.144531 14.410156 C 23.15625 14.449219 23.15625 14.480469 23.148438 14.511719 C 23.171875 14.570312 23.171875 14.640625 23.117188 14.703125 C 22.253906 15.734375 21.734375 16.984375 20.996094 18.101562 C 20.308594 19.148438 19.457031 20.074219 18.671875 21.042969 C 18.578125 21.164062 18.4375 21.097656 18.386719 20.988281 C 17.265625 20.839844 16.203125 20.402344 15.128906 20.066406 C 13.949219 19.699219 12.765625 19.34375 11.59375 18.949219 C 11.585938 18.949219 11.585938 18.945312 11.578125 18.945312 C 11.582031 18.988281 11.582031 19.027344 11.578125 19.0625 C 13.914062 19.871094 16.113281 21.152344 18.605469 21.425781 C 18.609375 21.425781 18.609375 21.425781 18.617188 21.425781 C 19.140625 20.988281 19.4375 20.386719 19.820312 19.828125 C 20.21875 19.253906 20.695312 18.734375 21.113281 18.171875 C 21.585938 17.535156 22.023438 16.871094 22.46875 16.214844 C 22.839844 15.660156 23.195312 15.097656 23.40625 14.460938 Z M 23.6875 14.148438 C 23.785156 14.175781 23.839844 14.28125 23.816406 14.375 C 23.609375 15.117188 23.214844 15.769531 22.78125 16.398438 C 22.335938 17.054688 21.90625 17.722656 21.429688 18.355469 C 20.933594 19.007812 20.375 19.621094 19.941406 20.316406 C 19.617188 20.835938 19.304688 21.355469 18.816406 21.738281 C 18.773438 21.769531 18.734375 21.777344 18.691406 21.777344 C 18.667969 21.789062 18.640625 21.796875 18.605469 21.792969 C 16.035156 21.511719 13.785156 20.199219 11.371094 19.378906 C 11.261719 19.441406 11.117188 19.46875 10.957031 19.472656 C 10.582031 19.476562 10.128906 19.261719 9.972656 18.898438 C 9.957031 18.863281 9.945312 18.824219 9.9375 18.792969 C 8.859375 18.78125 7.785156 18.570312 6.726562 18.382812 C 5.773438 18.214844 4.816406 18.003906 3.996094 17.464844 C 3.917969 17.414062 3.871094 17.296875 3.929688 17.214844 C 3.988281 17.132812 4.042969 17.050781 4.09375 16.972656 C 4.085938 16.894531 4.125 16.816406 4.191406 16.777344 C 4.230469 16.691406 4.257812 16.597656 4.273438 16.488281 C 4.273438 16.476562 4.277344 16.464844 4.28125 16.449219 C 4.160156 16.410156 4.078125 16.257812 4.203125 16.15625 C 4.695312 15.746094 5.046875 15.253906 5.300781 14.667969 C 5.003906 14.46875 4.703125 14.269531 4.402344 14.078125 C 4.328125 14.03125 4.308594 13.957031 4.320312 13.890625 C 4.320312 13.847656 4.335938 13.808594 4.367188 13.769531 C 4.726562 13.335938 5.136719 12.953125 5.566406 12.585938 C 5.53125 12.554688 5.503906 12.523438 5.46875 12.488281 C 5.359375 12.453125 5.277344 12.296875 5.378906 12.179688 C 6.34375 11.074219 7.589844 10.179688 8.699219 9.226562 C 9.722656 8.34375 10.761719 7.511719 11.894531 6.765625 C 11.925781 6.746094 11.957031 6.738281 11.988281 6.738281 C 12.0625 6.703125 12.15625 6.714844 12.203125 6.8125 C 12.699219 7.8125 13.707031 8.355469 14.5 9.082031 C 15.289062 9.800781 16.015625 10.691406 16.511719 11.640625 C 16.523438 11.644531 16.535156 11.648438 16.546875 11.652344 C 18.152344 11.183594 19.679688 10.472656 21.316406 10.09375 C 21.535156 10.042969 21.632812 10.363281 21.441406 10.4375 C 21.394531 10.5 21.347656 10.5625 21.304688 10.625 C 21.539062 10.589844 21.777344 10.558594 22.015625 10.554688 C 22.128906 10.554688 22.1875 10.640625 22.191406 10.730469 C 22.199219 10.78125 22.210938 10.828125 22.230469 10.878906 C 22.234375 10.878906 22.253906 10.917969 22.253906 10.921875 C 22.269531 10.949219 22.28125 10.972656 22.292969 10.992188 C 22.339844 11.074219 22.320312 11.152344 22.269531 11.203125 C 22.089844 11.453125 21.917969 11.707031 21.75 11.964844 C 21.992188 11.953125 22.238281 11.960938 22.480469 11.960938 C 22.652344 11.960938 22.699219 12.15625 22.621094 12.261719 C 22.613281 12.28125 22.605469 12.300781 22.589844 12.316406 C 22.578125 12.332031 22.566406 12.347656 22.554688 12.363281 C 22.667969 12.390625 22.78125 12.425781 22.898438 12.476562 C 22.984375 12.511719 23.019531 12.652344 22.964844 12.726562 C 22.820312 12.925781 22.679688 13.121094 22.535156 13.320312 C 22.65625 13.335938 22.777344 13.359375 22.894531 13.398438 C 22.925781 13.40625 22.949219 13.421875 22.964844 13.4375 C 23.015625 13.464844 23.050781 13.519531 23.050781 13.59375 C 23.050781 13.765625 23.050781 13.894531 23.0625 14.011719 C 23.273438 14.050781 23.480469 14.097656 23.6875 14.148438 " fill-opacity="1" fill-rule="nonzero"/></g><g fill="#000000" fill-opacity="1"><g transform="translate(24.931954, 12.924587)"><g><path d="M 4.113281 -4.066406 L 2.945312 -4.066406 L 2.945312 -3.4375 L 6.027344 -3.4375 L 6.027344 -4.066406 L 4.886719 -4.066406 L 4.886719 -4.441406 L 6.230469 -4.441406 L 6.230469 -5.078125 L 4.886719 -5.078125 L 4.886719 -5.554688 L 4.113281 -5.554688 L 4.113281 -5.078125 L 2.714844 -5.078125 L 2.714844 -4.441406 L 4.113281 -4.441406 Z M 3.339844 -2.539062 L 5.609375 -2.539062 L 5.609375 -1.84375 L 6.289062 -1.84375 L 6.289062 -3.140625 L 2.6875 -3.140625 L 2.6875 -1.84375 L 3.339844 -1.84375 Z M 2.53125 -4.472656 L 1.398438 -4.472656 L 1.890625 -4.742188 C 1.789062 -4.976562 1.585938 -5.34375 1.402344 -5.613281 L 0.808594 -5.324219 C 0.957031 -5.070312 1.132812 -4.722656 1.238281 -4.472656 L 0.214844 -4.472656 L 0.214844 -3.832031 L 2.53125 -3.832031 Z M 2.320312 -3.5625 L 0.484375 -3.5625 L 0.484375 -2.945312 L 2.320312 -2.945312 Z M 0.484375 -2.054688 L 2.320312 -2.054688 L 2.320312 -2.683594 L 0.484375 -2.683594 Z M 1.726562 -0.417969 L 1.140625 -0.417969 L 1.140625 -1.15625 L 1.726562 -1.15625 Z M 2.394531 -1.777344 L 0.480469 -1.777344 L 0.480469 0.484375 L 1.140625 0.484375 L 1.140625 0.210938 L 2.394531 0.210938 Z M 3.585938 -1.699219 C 3.585938 -1.199219 3.441406 -0.460938 2.394531 0.078125 C 2.570312 0.210938 2.800781 0.4375 2.925781 0.582031 C 4.113281 -0.0273438 4.289062 -0.984375 4.289062 -1.679688 L 4.289062 -2.210938 L 3.585938 -2.210938 Z M 5.429688 -0.191406 C 5.34375 -0.191406 5.332031 -0.214844 5.332031 -0.40625 L 5.332031 -2.203125 L 4.628906 -2.203125 L 4.628906 -0.398438 C 4.628906 0.25 4.75 0.464844 5.304688 0.464844 L 5.726562 0.464844 C 6.171875 0.464844 6.347656 0.210938 6.40625 -0.722656 C 6.21875 -0.773438 5.929688 -0.886719 5.792969 -1.011719 C 5.777344 -0.296875 5.746094 -0.191406 5.648438 -0.191406 Z M 5.429688 -0.191406 "/></g></g></g><g fill="#000000" fill-opacity="1"><g transform="translate(31.582116, 12.924587)"><g><path d="M 3.824219 -4.933594 L 2.898438 -5.304688 C 2.78125 -5.03125 2.664062 -4.820312 2.578125 -4.644531 C 2.238281 -4.027344 0.867188 -1.296875 0.386719 0 L 1.304688 0.308594 C 1.402344 -0.03125 1.621094 -0.753906 1.796875 -1.132812 C 2.027344 -1.664062 2.386719 -2.113281 2.832031 -2.113281 C 3.070312 -2.113281 3.195312 -1.980469 3.214844 -1.75 C 3.234375 -1.488281 3.226562 -0.957031 3.253906 -0.609375 C 3.28125 -0.136719 3.621094 0.296875 4.328125 0.296875 C 5.332031 0.296875 5.933594 -0.4375 6.269531 -1.5625 L 5.566406 -2.132812 C 5.382812 -1.324219 5.03125 -0.597656 4.472656 -0.597656 C 4.257812 -0.597656 4.078125 -0.695312 4.058594 -0.949219 C 4.019531 -1.21875 4.039062 -1.746094 4.027344 -2.03125 C 4 -2.570312 3.707031 -2.886719 3.21875 -2.886719 C 2.972656 -2.886719 2.722656 -2.828125 2.480469 -2.6875 C 2.800781 -3.257812 3.292969 -4.164062 3.613281 -4.628906 C 3.6875 -4.734375 3.757812 -4.851562 3.824219 -4.933594 Z M 3.824219 -4.933594 "/></g></g></g><g fill="#000000" fill-opacity="1"><g transform="translate(38.232277, 12.924587)"><g><path d="M 5.527344 -4.074219 C 5.410156 -4.316406 5.175781 -4.730469 5.011719 -4.972656 L 4.492188 -4.753906 C 4.667969 -4.503906 4.871094 -4.113281 5.003906 -3.84375 Z M 3.300781 -2.414062 C 3.707031 -2.460938 4.097656 -2.484375 4.550781 -2.484375 C 4.945312 -2.484375 5.34375 -2.441406 5.667969 -2.402344 L 5.6875 -3.1875 C 5.304688 -3.226562 4.914062 -3.238281 4.546875 -3.238281 C 4.125 -3.238281 3.660156 -3.214844 3.300781 -3.175781 Z M 3.8125 -4.492188 C 3.457031 -4.40625 3.089844 -4.335938 2.722656 -4.28125 L 2.773438 -4.527344 C 2.808594 -4.667969 2.867188 -4.957031 2.910156 -5.140625 L 1.921875 -5.21875 C 1.933594 -5.0625 1.929688 -4.800781 1.894531 -4.558594 C 1.882812 -4.460938 1.863281 -4.328125 1.835938 -4.191406 C 1.640625 -4.179688 1.449219 -4.171875 1.257812 -4.171875 C 0.992188 -4.171875 0.773438 -4.179688 0.4375 -4.21875 L 0.460938 -3.410156 C 0.6875 -3.398438 0.929688 -3.382812 1.246094 -3.382812 C 1.378906 -3.382812 1.523438 -3.390625 1.671875 -3.398438 C 1.632812 -3.214844 1.582031 -3.03125 1.535156 -2.851562 C 1.292969 -1.941406 0.800781 -0.582031 0.414062 0.0703125 L 1.324219 0.375 C 1.679688 -0.394531 2.117188 -1.71875 2.355469 -2.628906 C 2.425781 -2.898438 2.492188 -3.1875 2.550781 -3.464844 C 2.984375 -3.515625 3.421875 -3.585938 3.8125 -3.679688 Z M 2.898438 -1.613281 C 2.847656 -1.363281 2.789062 -1.050781 2.789062 -0.746094 C 2.789062 -0.09375 3.34375 0.289062 4.441406 0.289062 C 4.957031 0.289062 5.398438 0.242188 5.765625 0.195312 L 5.796875 -0.636719 C 5.332031 -0.558594 4.878906 -0.503906 4.445312 -0.503906 C 3.75 -0.503906 3.585938 -0.722656 3.585938 -1.003906 C 3.585938 -1.148438 3.625 -1.359375 3.679688 -1.546875 Z M 5.265625 -5.058594 C 5.449219 -4.808594 5.660156 -4.425781 5.796875 -4.152344 L 6.316406 -4.375 C 6.203125 -4.605469 5.960938 -5.015625 5.785156 -5.265625 Z M 5.265625 -5.058594 "/></g></g></g><g fill="#000000" fill-opacity="1"><g transform="translate(24.931954, 20.30356)"><g><path d="M 1.625 -3.359375 L 1.625 0 L 0.390625 0 L 0.390625 -5.40625 L 1.625 -5.40625 L 3.78125 -2.046875 L 3.796875 -2.046875 L 3.796875 -5.40625 L 5.03125 -5.40625 L 5.03125 0 L 3.796875 0 L 1.640625 -3.359375 Z M 1.625 -3.359375 "/></g></g></g><g fill="#000000" fill-opacity="1"><g transform="translate(30.440965, 20.30356)"><g><path d="M 0.15625 -2.703125 C 0.15625 -3.492188 0.421875 -4.160156 0.953125 -4.703125 C 1.484375 -5.242188 2.125 -5.515625 2.875 -5.515625 C 3.632812 -5.515625 4.28125 -5.242188 4.8125 -4.703125 C 5.34375 -4.160156 5.609375 -3.492188 5.609375 -2.703125 C 5.609375 -1.910156 5.347656 -1.242188 4.828125 -0.703125 C 4.304688 -0.171875 3.65625 0.09375 2.875 0.09375 C 2.082031 0.09375 1.429688 -0.171875 0.921875 -0.703125 C 0.410156 -1.242188 0.15625 -1.910156 0.15625 -2.703125 Z M 1.484375 -2.703125 C 1.484375 -2.421875 1.523438 -2.160156 1.609375 -1.921875 C 1.703125 -1.691406 1.859375 -1.492188 2.078125 -1.328125 C 2.296875 -1.171875 2.5625 -1.09375 2.875 -1.09375 C 3.332031 -1.09375 3.675781 -1.25 3.90625 -1.5625 C 4.144531 -1.882812 4.265625 -2.265625 4.265625 -2.703125 C 4.265625 -3.148438 4.144531 -3.53125 3.90625 -3.84375 C 3.675781 -4.164062 3.332031 -4.328125 2.875 -4.328125 C 2.4375 -4.328125 2.09375 -4.164062 1.84375 -3.84375 C 1.601562 -3.53125 1.484375 -3.148438 1.484375 -2.703125 Z M 1.484375 -2.703125 "/></g></g></g><g fill="#000000" fill-opacity="1"><g transform="translate(36.28445, 20.30356)"><g><path d="M 2.09375 0 L -0.1875 -5.40625 L 1.203125 -5.40625 L 2.578125 -1.859375 L 3.9375 -5.40625 L 5.328125 -5.40625 L 3.0625 0 Z M 2.09375 0 "/></g></g></g><g fill="#000000" fill-opacity="1"><g transform="translate(41.518011, 20.30356)"><g><path d="M 3.484375 -5.40625 L 3.484375 -4.328125 L 1.625 -4.328125 L 1.625 -3.25 L 3.40625 -3.25 L 3.40625 -2.171875 L 1.625 -2.171875 L 1.625 -1.078125 L 3.484375 -1.078125 L 3.484375 0 L 0.390625 0 L 0.390625 -5.40625 Z M 3.484375 -5.40625 "/></g></g></g><g fill="#000000" fill-opacity="1"><g transform="translate(45.413673, 20.30356)"><g><path d="M 1.625 -5.40625 L 1.625 -1.078125 L 3.484375 -1.078125 L 3.484375 0 L 0.390625 0 L 0.390625 -5.40625 Z M 1.625 -5.40625 "/></g></g></g><g fill="#000000" fill-opacity="1"><g transform="translate(49.210958, 20.30356)"><g><path d="M 2.390625 -5.515625 C 2.679688 -5.515625 2.96875 -5.46875 3.25 -5.375 C 3.53125 -5.289062 3.738281 -5.207031 3.875 -5.125 L 4.0625 -5 L 3.5625 -4.015625 C 3.53125 -4.046875 3.476562 -4.082031 3.40625 -4.125 C 3.332031 -4.164062 3.195312 -4.21875 3 -4.28125 C 2.8125 -4.351562 2.632812 -4.390625 2.46875 -4.390625 C 2.269531 -4.390625 2.113281 -4.34375 2 -4.25 C 1.882812 -4.164062 1.828125 -4.050781 1.828125 -3.90625 C 1.828125 -3.832031 1.851562 -3.765625 1.90625 -3.703125 C 1.957031 -3.640625 2.046875 -3.570312 2.171875 -3.5 C 2.304688 -3.425781 2.421875 -3.363281 2.515625 -3.3125 C 2.609375 -3.269531 2.753906 -3.207031 2.953125 -3.125 C 3.304688 -2.976562 3.601562 -2.773438 3.84375 -2.515625 C 4.09375 -2.253906 4.21875 -1.960938 4.21875 -1.640625 C 4.21875 -1.335938 4.160156 -1.066406 4.046875 -0.828125 C 3.941406 -0.597656 3.789062 -0.414062 3.59375 -0.28125 C 3.40625 -0.15625 3.191406 -0.0625 2.953125 0 C 2.710938 0.0625 2.457031 0.09375 2.1875 0.09375 C 1.945312 0.09375 1.710938 0.0664062 1.484375 0.015625 C 1.253906 -0.0234375 1.0625 -0.0820312 0.90625 -0.15625 C 0.757812 -0.226562 0.625 -0.296875 0.5 -0.359375 C 0.382812 -0.429688 0.296875 -0.492188 0.234375 -0.546875 L 0.15625 -0.609375 L 0.765625 -1.65625 C 0.816406 -1.613281 0.890625 -1.554688 0.984375 -1.484375 C 1.078125 -1.421875 1.238281 -1.332031 1.46875 -1.21875 C 1.707031 -1.101562 1.914062 -1.046875 2.09375 -1.046875 C 2.613281 -1.046875 2.875 -1.222656 2.875 -1.578125 C 2.875 -1.648438 2.851562 -1.71875 2.8125 -1.78125 C 2.78125 -1.84375 2.71875 -1.90625 2.625 -1.96875 C 2.53125 -2.03125 2.445312 -2.078125 2.375 -2.109375 C 2.300781 -2.148438 2.179688 -2.207031 2.015625 -2.28125 C 1.847656 -2.363281 1.726562 -2.425781 1.65625 -2.46875 C 1.320312 -2.625 1.066406 -2.820312 0.890625 -3.0625 C 0.710938 -3.3125 0.625 -3.578125 0.625 -3.859375 C 0.625 -4.347656 0.800781 -4.742188 1.15625 -5.046875 C 1.519531 -5.359375 1.929688 -5.515625 2.390625 -5.515625 Z M 2.390625 -5.515625 "/></g></g></g></svg>